<svg xmlns="http://www.w3.org/2000/svg" width="208.333" height="60.667" viewBox="-3.067 13.453 208.333 60.667" enable-background="new -3.067 13.453 208.333 60.667"><g opacity=".8"><g><path d="M153.31 56.074v5.29h-15.02c.29-.1.53-.16.75-.26.68-.31 1.03-.86 1.08-1.6.01-.102.01-.2.01-.302 0-4.37-.02-8.73.01-13.09 0-1.04-.56-1.53-1.278-1.77-.23-.07-.47-.12-.71-.18h14.2v4.11c-.22.07-.32.01-.4-.22-.43-1.26-1.11-2.31-2.29-3-.6-.35-1.25-.54-1.93-.55-1.31-.01-2.63 0-3.95 0-.04 0-.08.01-.13.02V51.9c.02.02.03.04.04.04.67-.01 1.35.022 2.02-.05 1.13-.11 1.91-.76 2.35-1.79.25-.55.41-1.14.62-1.74h.25v7.52h-.29c-.13-.42-.24-.85-.39-1.27-.28-.83-.72-1.55-1.52-1.97-.25-.12-.53-.25-.81-.27-.74-.063-1.49-.07-2.262-.092v8.72c.03.01.06.02.09.02 1.36 0 2.72.022 4.08-.02 2.092-.05 3.53-1.16 4.47-2.97.292-.54.45-1.15.67-1.74.03-.068.042-.14.062-.22.1.006.18.006.28.006zM143.86 22.504c.69.79.67 1.88-.02 2.67-.8.89-1.13 1.96-1.03 3.15.1 1.07-.54 1.93-1.59 2.16-1.13.25-2.01.89-2.61 1.88-.61.98-1.56 1.3-2.62.86-1.08-.45-2.18-.45-3.25.01-1.02.43-2.01.1-2.58-.85-.608-1-1.487-1.65-2.63-1.9-1.05-.24-1.68-1.09-1.6-2.16.1-1.21-.24-2.28-1.05-3.19-.65-.73-.69-1.81-.05-2.55.85-.97 1.21-2.09 1.1-3.38-.09-.93.56-1.79 1.47-1.99 1.25-.28 2.19-.97 2.84-2.07.24-.4.603-.67 1.052-.82.068-.03.148-.06.22-.09h.76c1.4.69 2.8.69 4.2 0h.76c.05.02.09.04.14.05.522.16.91.47 1.2.95.61 1.02 1.512 1.68 2.682 1.95 1.03.23 1.66 1.09 1.568 2.15-.11 1.2.24 2.26 1.038 3.17zm-.38 2.11c.41-.45.4-1.12 0-1.58-.99-1.12-1.41-2.43-1.278-3.91.05-.64-.342-1.15-.96-1.29-1.42-.33-2.51-1.11-3.26-2.36-.372-.6-.962-.79-1.61-.52-1.33.56-2.67.55-4-.01-.63-.26-1.24-.07-1.59.51-.762 1.26-1.852 2.05-3.28 2.38-.36.08-.63.27-.812.59-.18.29-.14.61-.13.93.08 1.34-.32 2.53-1.18 3.56-.55.66-.55 1.18.01 1.84.86 1.01 1.21 2.21 1.18 3.53 0 .04-.01.08-.01.12-.06.82.25 1.24 1.04 1.44 1.36.34 2.41 1.1 3.15 2.29.398.66.96.84 1.67.55 1.29-.53 2.6-.53 3.89-.01.73.3 1.28.13 1.7-.54.75-1.22 1.84-2 3.24-2.31.59-.13 1-.65.95-1.25-.01-.21-.052-.42-.04-.63.06-1.26.462-2.39 1.32-3.33zM143.182 23.234c.318.38.33.8 0 1.18-1 1.15-1.45 2.49-1.34 4.01.04.64-.16.92-.79 1.08-1.46.37-2.59 1.19-3.37 2.47-.29.48-.67.6-1.182.39-1.42-.58-2.84-.58-4.26 0-.5.21-.88.09-1.16-.37-.8-1.32-1.97-2.16-3.48-2.52-.46-.1-.71-.41-.7-.85.14-1.25-.14-2.39-.76-3.44-.16-.28-.37-.53-.568-.77-.32-.38-.33-.8-.012-1.17.94-1.04 1.352-2.29 1.38-3.67 0-.19-.028-.37-.04-.56 0-.41.25-.74.64-.83 1.57-.35 2.763-1.21 3.58-2.59.222-.37.65-.51 1.052-.34 1.47.62 2.94.62 4.41 0 .398-.17.83-.03 1.05.35.82 1.36 2 2.23 3.56 2.58.45.1.7.46.65.99-.11 1.18.18 2.27.76 3.29.16.27.37.52.58.77zm-3.242-1.15v-1.65h-4.78v7.44c0 .69-.26 1.07-.88 1.33-.01 0-.02.02-.02.03h3.53c-.18-.14-.41-.29-.57-.49-.23-.27-.25-.61-.25-.96.01-2.3.01-4.6.01-6.9v-.26c.61-.05 1.17 0 1.71.29.512.28.982.6 1.25 1.17zm-5.81-1.66h-3.108c-.49 0-.94.13-1.33.41-1.04.74-.95 2.1.18 2.68.28.14.58.22.87.33.36.13.73.22 1.07.37.37.16.62.45.6.89-.028.54-.29.96-.81 1.14-.74.25-1.53.16-2.05-.5-.2-.25-.35-.55-.52-.83-.062-.1-.093-.2-.142-.31-.01.01-.03.01-.04.02v1.78c.25-.29.53-.23.81-.16.17.05.33.12.512.15.95.23 1.818.09 2.53-.65.84-.87.67-2.11-.392-2.68-.31-.17-.66-.26-.99-.38-.44-.14-.89-.25-1.31-.43-.4-.18-.53-.63-.3-1.01.1-.18.28-.36.46-.47.698-.42 1.59-.2 2.09.48.16.21.29.44.46.7.04-.43.148-.81.48-1.04.312-.22.672-.36.93-.49zM137.07 44.054v4.27c-1.35-3.84-3.75-4.02-5.8-3.9v14.47c0 1.12.63 1.96 1.71 2.28.062.01.11.028.21.068h-7.38c.08-.03.13-.05.17-.06 1.04-.28 1.552-1 1.68-2.02.062-.513.062-1.022.062-1.54.01-2.302.02-4.602.02-6.912 0-2.13-.01-4.26-.01-6.4 0-.08 0-.16.01-.26 3.11.004 6.21.004 9.33.004zM119.63 44.054h5.86c-.36.12-.72.21-1.068.36-1.02.42-1.852 1.05-2.182 2.16-.1.32-.14.66-.14 1-.01 2.77-.01 5.55-.01 8.32 0 .82-.08 1.63-.32 2.42-.44 1.39-1.33 2.36-2.71 2.83-.58.2-1.2.28-1.81.42-.07.01-.142.03-.212.05h-1.72l-1.25-.15c-.83-.11-1.62-.34-2.358-.71-1.46-.72-2.312-1.89-2.512-3.5-.08-.58-.13-1.17-.13-1.76-.01-2.87 0-5.74-.01-8.61 0-.35-.04-.71-.13-1.04-.23-.86-.79-1.42-1.63-1.688-.08-.03-.17-.05-.25-.1h7.47c-.25.11-.52.19-.76.33-.67.39-1 1.02-1.12 1.77-.04.25-.05.5-.062.75 0 2.88-.01 5.76.012 8.63 0 1.07.04 2.13.35 3.16.33 1.08.93 1.93 2.03 2.32.42.14.87.2 1.31.23.78.05 1.55-.03 2.3-.26 1.69-.522 2.632-1.7 2.95-3.392.102-.5.15-1.01.15-1.51.01-2.96.02-5.92 0-8.88-.01-1.13-.37-2.11-1.352-2.77-.204-.15-.445-.25-.695-.38zM122.16 35.754v5.29h-15.038c.27-.11.62-.2.93-.37.56-.31.83-.82.89-1.45.01-.12.01-.25.01-.38v-13c0-1.04-.397-1.57-1.39-1.87-.17-.04-.34-.08-.53-.14h14.132v4.1c-.21.07-.32.01-.39-.21-.382-1.11-.972-2.08-1.962-2.79-.78-.55-1.648-.77-2.59-.77h-3.64c-.04 0-.07.01-.12.01v7.46c.94-.02 1.87.1 2.78-.23.75-.28 1.278-.82 1.6-1.53.22-.52.39-1.06.54-1.6.07-.23.15-.3.38-.22v7.47c-.23.08-.32.01-.39-.21-.19-.61-.36-1.24-.66-1.8-.53-1.03-1.42-1.54-2.59-1.52h-1.66v8.7H116.312c2.208.02 3.778-1.02 4.778-2.94.3-.58.48-1.22.71-1.83.02-.06.03-.11.06-.17h.3zM105.23 46.994c.392 1.67-.06 2.71-1.35 3.67-.94.69-2.02 1.03-3.15 1.23-.06.01-.12.02-.17.04-.03 0-.05.02-.12.06l-.17.41c-.13-.04-.27-.08-.42-.1-.74-.12-1.49-.102-2.26-.15l-.02-.25c.77-.06 1.5-.06 2.2-.19.96-.18 1.58-.8 1.78-1.78.09-.448.13-.92.14-1.378.02-.92-.01-1.83-.34-2.71-.28-.74-.8-1.21-1.57-1.4-.37-.09-.75-.13-1.12-.13l-.01-.32c.54-.01 1.08-.01 1.62.01 1.05.04 2.088.26 3.04.77.92.488 1.68 1.158 1.92 2.218zM105.14 35.774v5.26h-15.1c.27-.1.57-.18.85-.31.73-.35 1.14-.93 1.14-1.76.02-3.59.03-7.19.04-10.78 0-.71-.04-1.42-.02-2.12.03-1.37-.83-1.92-1.74-2.15-.07-.02-.14-.04-.21-.08h7.62c-.24.1-.43.16-.58.26-.37.22-.75.45-1.09.72-.37.29-.5.71-.5 1.19V40.694h3.73c2.34.01 4.052-1.03 5.09-3.13.29-.59.52-1.21.77-1.79zM104.57 53.274c2.21 1.51 2.36 5.03-.1 6.69-.95.64-2 1-3.11 1.188-.77.13-1.54.16-2.32.16v-.35c.2 0 .41-.012.61-.022 1.16-.08 1.95-.69 2.28-1.8.18-.63.28-1.3.34-1.96.08-.97.07-1.96-.27-2.9-.32-.89-.85-1.59-1.73-1.88l.17-.41c.38.06.72.1 1.05.15 1.112.173 2.15.494 3.08 1.134zM99.04 60.964v.35c-.49 0-.978-.02-1.47-.02-1.76 0-3.52-.02-5.29-.03h-.32c.39-.14.74-.25 1.06-.4.21-.09.4-.22.58-.358.31-.24.46-.55.46-.96-.01-4.25-.01-8.5-.01-12.75 0-.34-.01-.68.01-1.02.04-.54-.21-.94-.67-1.18-.43-.22-.88-.38-1.31-.56h.22c1.53 0 3.07-.01 4.6-.01l1.75-.03.012.32c-.26 0-.53.02-.79.04-.24.02-.3.1-.3.33.01 2.29 0 4.57 0 6.86v.36l.02.25c-.01.12-.01.16-.01.2-.01 2.79 0 5.57-.01 8.35 0 .19.08.24.24.24.41-.002.82.018 1.23.018zM90.312 44.054c.01.01.01.01.01.02-.14.04-.28.08-.42.13-.46.14-.91.32-1.26.67-.23.23-.34.49-.35.81v13.19c0 .21.02.42 0 .63-.03.54.22.94.67 1.19.42.23.88.39 1.26.55h-7.57c.22-.07.39-.11.55-.188.4-.21.81-.42 1.18-.67.29-.2.4-.53.4-.892 0-4.51-.01-9.02.01-13.54.01-.82-.39-1.31-1.1-1.59-.3-.12-.62-.2-.95-.31h7.57zM87.25 41.234h-7.48c.12-.04.22-.07.31-.09.93-.26 1.58-1.05 1.61-2.13.06-1.65.05-3.31.06-4.96 0-.07-.02-.15-.06-.21-1.18-2.06-2.34-4.12-3.54-6.16-.55-.94-1.21-1.83-1.97-2.62-.42-.44-.9-.67-1.51-.67v-.56h7.19c-.17.06-.29.09-.42.14-.67.25-.89.75-.56 1.38.34.68.74 1.32 1.12 1.98 1.06 1.84 2.12 3.68 3.17 5.52.07.12.1.27.1.41.01 1.75-.01 3.49.01 5.24.01.43.09.87.22 1.28.23.73.77 1.17 1.5 1.37.07.02.142.05.25.08zM81.84 60.744c-.19.11-.37.27-.57.35-.77.312-1.59.392-2.41.35-.64-.038-1.27-.158-1.86-.437-.95-.47-1.47-1.24-1.57-2.29-.09-1.06-.11-2.13-.22-3.2-.05-.56-.18-1.13-.38-1.66-.27-.688-.71-1.18-1.33-1.43l.2-.45c.03.01.06.01.09.02.79.172 1.58.302 2.35.522 1.69.49 2.56 1.58 2.73 3.34.1 1.06.16 2.13.26 3.2.02.27.07.55.15.81.21.67.64.99 1.33.98.4-.006.802-.096 1.23-.106zM76.872 45.134c1.76 1.23 1.78 3.31 1.18 4.46-.5.96-1.36 1.51-2.35 1.83-.61.19-1.25.28-1.87.42l-.18.03c-.01 0-.01.03-.04.068.03.01.07.02.09.03l-.2.45c-.24-.1-.51-.16-.8-.18-.72-.04-1.43-.012-2.16-.012v-.358c.66-.03 1.29-.02 1.92-.1 1.17-.16 1.88-.82 2.08-1.99.2-1.21.18-2.43-.13-3.63-.2-.78-.64-1.4-1.44-1.63-.49-.13-1.01-.17-1.52-.2v-.35h.17c.53 0 1.07.01 1.6.03 1.3.062 2.55.362 3.65 1.132zM74.67 23.834v.56h-.08c-1.31.04-2.61.02-3.92.02-.07 0-.13.01-.23.02v.31c0 4.53 0 9.06.01 13.59 0 .48.08.98.22 1.44.23.73.77 1.17 1.5 1.37.09.03.17.06.29.09H65c.06-.02.12-.05.18-.07 1-.24 1.52-.92 1.68-1.89.08-.45.08-.91.09-1.36l.03-13.79v-.29h7.69zM72.4 61.294h-7.15c.27-.16.67-.34 1-.602.48-.38.65-.95.72-1.54.03-.278.05-.568.05-.858 0-3.64-.02-7.29.01-10.93.01-2.06-1.2-2.9-2.72-3.21-.16-.03-.33-.05-.5-.08v-.05h.74c1.63-.01 3.27-.03 4.9-.03.66-.01 1.34-.02 2-.02v.35c-.3-.02-.61.04-.91.07V52.234c-.01.068-.01.148-.01.228 0 2.09-.01 4.17 0 6.25.01.87.25 1.66 1.02 2.18.282.182.6.282.85.402zM65.03 23.914h.27c-2.32.53-3.37 2.07-3.47 4.33-.45-.69-.88-1.42-1.38-2.09-1.42-1.89-4.05-2.44-6.04-1.28-.78.45-1.34 1.08-1.53 1.98-.21.97.11 1.74.94 2.26.72.46 1.52.68 2.32.91 1.14.32 2.28.6 3.4.97.96.32 1.84.84 2.55 1.59 1.18 1.25 1.43 2.72.96 4.32-.71 2.4-2.42 3.74-4.79 4.3-1.53.36-3.05.19-4.53-.32-.4-.14-.82-.24-1.24-.33-.71-.15-1.37-.09-1.82.66v-5.48c.2.46.37.87.57 1.28.5 1.03 1.09 1.99 1.94 2.78.87.81 1.88 1.26 3.08 1.24.56-.02 1.14-.02 1.69-.12 1.77-.34 2.95-1.75 3.02-3.55.04-.95-.37-1.68-1.14-2.22-.76-.54-1.64-.81-2.52-1.07-1.2-.35-2.42-.67-3.55-1.22-1.19-.58-2.06-1.46-2.53-2.7-.38-.99-.28-1.98.14-2.93.76-1.7 2.15-2.66 3.91-3.11.5-.13 1.03-.13 1.55-.19.14-.01.29 0 .43 0 2.592 0 5.18-.01 7.77-.01zM61.42 61.233h-7.3c.18-.05.35-.1.5-.16.87-.358 1.25-1.068 1.37-1.948.04-.35.05-.7.05-1.062v-13.63c-1.45-.19-2.78.03-3.94.95-.96.76-1.62 1.68-1.85 2.9 0 .02-.02.04-.03.07v-4.31c.58 0 1.16-.01 1.75-.01h7.59V58.73c0 .882.29 1.65 1.07 2.143.25.16.54.252.79.36z"/></g></g><path d="M-.563 67.483H-.1v5.637h-.624v-4.98l-1.055.327-.15-.512 1.367-.472zM3.884 73.216c-1.447 0-2.358-1.31-2.358-2.886s.927-2.903 2.374-2.903c1.44 0 2.35 1.312 2.35 2.887s-.927 2.902-2.366 2.902zm0-5.213c-1.048 0-1.703 1.07-1.703 2.31s.673 2.328 1.72 2.328c1.048 0 1.695-1.08 1.695-2.31s-.663-2.327-1.71-2.327zM9.924 73.216c-1.447 0-2.358-1.31-2.358-2.886s.927-2.903 2.374-2.903c1.44 0 2.35 1.312 2.35 2.887s-.927 2.902-2.366 2.902zm0-5.213c-1.048 0-1.703 1.07-1.703 2.31s.673 2.328 1.72 2.328c1.048 0 1.695-1.08 1.695-2.31s-.664-2.327-1.71-2.327zM14.788 70.32c-.76 0-1.263-.662-1.263-1.422 0-.768.512-1.44 1.28-1.44.75 0 1.254.665 1.254 1.425 0 .767-.512 1.438-1.272 1.438zm0-2.413c-.44 0-.728.432-.728.976 0 .567.328.99.744.99.432 0 .728-.43.728-.975 0-.567-.336-.99-.744-.99zm-.11 5.213H14.1l4.11-5.597h.568l-4.1 5.597zm3.405.065c-.752 0-1.256-.664-1.256-1.424 0-.767.512-1.438 1.27-1.438s1.256.664 1.256 1.424c0 .767-.502 1.44-1.27 1.44zm0-2.415c-.433 0-.728.432-.728.976 0 .567.327.99.743.99.44 0 .728-.43.728-.975 0-.567-.328-.99-.743-.99zM28.826 73.12h-.68l-.656-1.48h-3.046l-.663 1.48h-.647l2.55-5.637h.593l2.55 5.637zm-2.854-4.9l-1.28 2.853h2.552l-1.272-2.854zM34.625 70.73c0 1.63-.936 2.478-2.335 2.478-1.383 0-2.327-.848-2.327-2.43v-3.255h.632v3.214c0 1.207.64 1.887 1.71 1.887 1.033 0 1.69-.623 1.69-1.847v-3.254h.63v3.206zM38.562 73.12h-.64v-5.014h-1.88v-.583h4.398v.583h-1.88v5.014zM42.58 70.602v2.52h-.632v-5.598h.63v2.486h3.23v-2.486h.633v5.597h-.63v-2.518h-3.23zM52.393 68.1H48.98v1.91h3.054v.576H48.98v1.958h3.453v.576h-4.085v-5.597h4.045v.576zM58.146 67.523h.616v5.597h-.504l-3.614-4.59v4.59h-.615v-5.597h.59l3.526 4.485v-4.485zM62.786 73.12h-.64v-5.014h-1.88v-.583h4.398v.583h-1.88v5.014zM66.86 67.523v5.597h-.633v-5.597h.632zM71.378 73.216c-1.615 0-2.807-1.27-2.807-2.886 0-1.6 1.184-2.903 2.83-2.903 1.017 0 1.624.36 2.184.888l-.432.464c-.472-.448-1-.77-1.76-.77-1.238 0-2.166 1-2.166 2.304 0 1.304.936 2.32 2.167 2.32.768 0 1.27-.297 1.807-.81l.416.408c-.584.592-1.223.984-2.238.984zM79.754 71.146h-1.36v1.975h-.63v-5.596h2.095c1.262 0 2.094.67 2.094 1.783 0 1.214-1.01 1.84-2.2 1.84zm.057-3.04h-1.415v2.463h1.384c.927 0 1.534-.496 1.534-1.24 0-.808-.6-1.224-1.503-1.224zM87.28 73.12l-1.622-2.175h-1.6v2.175h-.63v-5.597h2.405c1.23 0 2.022.663 2.022 1.67 0 .937-.64 1.48-1.52 1.64l1.72 2.287h-.774zm-1.494-5.014h-1.728v2.27h1.72c.84 0 1.438-.43 1.438-1.16 0-.694-.527-1.11-1.43-1.11zM93.576 68.1h-3.414v1.91h3.055v.576h-3.055v1.958h3.454v.576H89.53v-5.597h4.046v.576zM95.212 67.523h.63v5.013h3.15v.584h-3.78v-5.597zM102.762 73.216c-1.704 0-2.847-1.335-2.847-2.886 0-1.552 1.16-2.903 2.863-2.903s2.846 1.336 2.846 2.887c0 1.55-1.16 2.902-2.862 2.902zm0-5.205c-1.28 0-2.192 1.024-2.192 2.304s.928 2.32 2.208 2.32c1.28 0 2.19-1.024 2.19-2.304s-.926-2.32-2.206-2.32zM111.168 67.523h.68l-2.406 5.637h-.56l-2.407-5.637h.703l1.992 4.82 1.998-4.82zM117.32 68.1h-3.413v1.91h3.055v.576h-3.055v1.958h3.453v.576h-4.084v-5.597h4.045v.576zM120.897 73.12h-1.94v-5.597h1.94c1.76 0 2.975 1.207 2.975 2.79s-1.215 2.807-2.975 2.807zm0-5.014h-1.31v4.43h1.31c1.416 0 2.32-.96 2.32-2.206 0-1.248-.904-2.224-2.32-2.224zM128.25 67.523h.63v5.013h3.15v.584h-3.78v-5.597zM137.936 70.73c0 1.63-.936 2.478-2.336 2.478-1.383 0-2.326-.848-2.326-2.43v-3.255h.63v3.214c0 1.207.642 1.887 1.712 1.887 1.033 0 1.688-.623 1.688-1.847v-3.254h.633v3.206zM143.56 73.12l-1.79-2.406-1.79 2.406h-.73l2.15-2.854-2.07-2.742h.744l1.72 2.286 1.702-2.286h.734l-2.07 2.734 2.15 2.862h-.75zM150.288 70.73c0 1.63-.936 2.478-2.336 2.478-1.383 0-2.326-.848-2.326-2.43v-3.255h.63v3.214c0 1.207.642 1.887 1.712 1.887 1.033 0 1.688-.623 1.688-1.847v-3.254h.633v3.206zM155.96 73.12l-1.624-2.175h-1.6v2.175h-.63v-5.597h2.405c1.233 0 2.024.663 2.024 1.67 0 .937-.64 1.48-1.52 1.64l1.72 2.287h-.775zm-1.495-5.014h-1.73v2.27h1.722c.838 0 1.438-.43 1.438-1.16 0-.694-.527-1.11-1.43-1.11zM160.4 73.12h-.64v-2.215l-2.328-3.382h.768l1.887 2.798 1.904-2.797h.735l-2.326 3.374v2.223zM170.797 68.106h-3.39v2h3.03v.575h-3.03v2.44h-.632V67.52h4.02v.584zM176.917 73.12h-.68l-.654-1.48h-3.047l-.664 1.48h-.648l2.55-5.637h.593l2.55 5.637zm-2.854-4.9l-1.28 2.853h2.552l-1.272-2.854zM180.237 70.018c1.248.272 1.822.728 1.822 1.592 0 .967-.8 1.59-1.91 1.59-.888 0-1.616-.295-2.288-.895l.393-.464c.584.528 1.143.793 1.918.793.752 0 1.248-.393 1.248-.96 0-.527-.278-.823-1.454-1.07-1.287-.28-1.88-.696-1.88-1.624 0-.897.776-1.536 1.84-1.536.815 0 1.4.23 1.966.688l-.367.487c-.52-.425-1.04-.608-1.615-.608-.727 0-1.19.4-1.19.912-.003.534.286.83 1.517 1.094zM184.3 70.602v2.52h-.63v-5.598h.63v2.486h3.23v-2.486h.634v5.597h-.633v-2.518h-3.23zM190.758 67.523v5.597h-.633v-5.597h.633zM195.317 73.216c-1.703 0-2.846-1.335-2.846-2.886 0-1.552 1.16-2.903 2.862-2.903s2.848 1.336 2.848 2.887c0 1.55-1.16 2.902-2.863 2.902zm0-5.205c-1.28 0-2.19 1.024-2.19 2.304s.927 2.32 2.206 2.32 2.19-1.024 2.19-2.304-.927-2.32-2.206-2.32zM203.956 67.523h.617v5.597h-.504l-3.616-4.59v4.59h-.615v-5.597h.59l3.526 4.485v-4.485z"/></svg>